<mxfile host="Electron" modified="2023-10-11T19:40:05.305Z" agent="Mozilla/5.0 (Macintosh; Intel Mac OS X 10_15_7) AppleWebKit/537.36 (KHTML, like Gecko) draw.io/21.1.2 Chrome/106.0.5249.199 Electron/21.4.3 Safari/537.36" etag="9IAOE3ET-pIWZujXsPBQ" version="21.1.2" type="device">
  <diagram name="Page-1" id="ZovyjYW3UTXlGAonBaG2">
    <mxGraphModel dx="1060" dy="1977" grid="1" gridSize="10" guides="1" tooltips="1" connect="1" arrows="1" fold="1" page="1" pageScale="1" pageWidth="827" pageHeight="1169" math="0" shadow="0">
      <root>
        <mxCell id="0" />
        <mxCell id="1" parent="0" />
        <mxCell id="sbV9HQ1WPudQin8OO-u3-1" value="clients_address_info" style="swimlane;fontStyle=0;childLayout=stackLayout;horizontal=1;startSize=26;horizontalStack=0;resizeParent=1;resizeParentMax=0;resizeLast=0;collapsible=1;marginBottom=0;align=center;fontSize=14;" vertex="1" parent="1">
          <mxGeometry x="350" y="220" width="160" height="176" as="geometry" />
        </mxCell>
        <mxCell id="sbV9HQ1WPudQin8OO-u3-2" value="client_id int&amp;nbsp;" style="text;strokeColor=none;fillColor=none;spacingLeft=4;spacingRight=4;overflow=hidden;rotatable=0;points=[[0,0.5],[1,0.5]];portConstraint=eastwest;fontSize=12;whiteSpace=wrap;html=1;" vertex="1" parent="sbV9HQ1WPudQin8OO-u3-1">
          <mxGeometry y="26" width="160" height="30" as="geometry" />
        </mxCell>
        <mxCell id="sbV9HQ1WPudQin8OO-u3-3" value="country_id int" style="text;strokeColor=none;fillColor=none;spacingLeft=4;spacingRight=4;overflow=hidden;rotatable=0;points=[[0,0.5],[1,0.5]];portConstraint=eastwest;fontSize=12;whiteSpace=wrap;html=1;" vertex="1" parent="sbV9HQ1WPudQin8OO-u3-1">
          <mxGeometry y="56" width="160" height="30" as="geometry" />
        </mxCell>
        <mxCell id="sbV9HQ1WPudQin8OO-u3-4" value="region_id int" style="text;strokeColor=none;fillColor=none;spacingLeft=4;spacingRight=4;overflow=hidden;rotatable=0;points=[[0,0.5],[1,0.5]];portConstraint=eastwest;fontSize=12;whiteSpace=wrap;html=1;" vertex="1" parent="sbV9HQ1WPudQin8OO-u3-1">
          <mxGeometry y="86" width="160" height="30" as="geometry" />
        </mxCell>
        <mxCell id="sbV9HQ1WPudQin8OO-u3-5" value="address_id int" style="text;strokeColor=none;fillColor=none;spacingLeft=4;spacingRight=4;overflow=hidden;rotatable=0;points=[[0,0.5],[1,0.5]];portConstraint=eastwest;fontSize=12;whiteSpace=wrap;html=1;" vertex="1" parent="sbV9HQ1WPudQin8OO-u3-1">
          <mxGeometry y="116" width="160" height="30" as="geometry" />
        </mxCell>
        <mxCell id="sbV9HQ1WPudQin8OO-u3-56" value="city_id&amp;nbsp;int" style="text;strokeColor=none;fillColor=none;spacingLeft=4;spacingRight=4;overflow=hidden;rotatable=0;points=[[0,0.5],[1,0.5]];portConstraint=eastwest;fontSize=12;whiteSpace=wrap;html=1;" vertex="1" parent="sbV9HQ1WPudQin8OO-u3-1">
          <mxGeometry y="146" width="160" height="30" as="geometry" />
        </mxCell>
        <mxCell id="sbV9HQ1WPudQin8OO-u3-6" value="clients_other_info" style="swimlane;fontStyle=0;childLayout=stackLayout;horizontal=1;startSize=26;horizontalStack=0;resizeParent=1;resizeParentMax=0;resizeLast=0;collapsible=1;marginBottom=0;align=center;fontSize=14;" vertex="1" parent="1">
          <mxGeometry x="360" y="40" width="160" height="146" as="geometry" />
        </mxCell>
        <mxCell id="sbV9HQ1WPudQin8OO-u3-7" value="client_id int&amp;nbsp;" style="text;strokeColor=none;fillColor=none;spacingLeft=4;spacingRight=4;overflow=hidden;rotatable=0;points=[[0,0.5],[1,0.5]];portConstraint=eastwest;fontSize=12;whiteSpace=wrap;html=1;" vertex="1" parent="sbV9HQ1WPudQin8OO-u3-6">
          <mxGeometry y="26" width="160" height="30" as="geometry" />
        </mxCell>
        <mxCell id="sbV9HQ1WPudQin8OO-u3-8" value="title_id&amp;nbsp;int" style="text;strokeColor=none;fillColor=none;spacingLeft=4;spacingRight=4;overflow=hidden;rotatable=0;points=[[0,0.5],[1,0.5]];portConstraint=eastwest;fontSize=12;whiteSpace=wrap;html=1;" vertex="1" parent="sbV9HQ1WPudQin8OO-u3-6">
          <mxGeometry y="56" width="160" height="30" as="geometry" />
        </mxCell>
        <mxCell id="sbV9HQ1WPudQin8OO-u3-9" value="gender_id&amp;nbsp;int" style="text;strokeColor=none;fillColor=none;spacingLeft=4;spacingRight=4;overflow=hidden;rotatable=0;points=[[0,0.5],[1,0.5]];portConstraint=eastwest;fontSize=12;whiteSpace=wrap;html=1;" vertex="1" parent="sbV9HQ1WPudQin8OO-u3-6">
          <mxGeometry y="86" width="160" height="30" as="geometry" />
        </mxCell>
        <mxCell id="sbV9HQ1WPudQin8OO-u3-10" value="language_id&amp;nbsp;int" style="text;strokeColor=none;fillColor=none;spacingLeft=4;spacingRight=4;overflow=hidden;rotatable=0;points=[[0,0.5],[1,0.5]];portConstraint=eastwest;fontSize=12;whiteSpace=wrap;html=1;" vertex="1" parent="sbV9HQ1WPudQin8OO-u3-6">
          <mxGeometry y="116" width="160" height="30" as="geometry" />
        </mxCell>
        <mxCell id="sbV9HQ1WPudQin8OO-u3-16" value="dim_title" style="swimlane;fontStyle=0;childLayout=stackLayout;horizontal=1;startSize=26;horizontalStack=0;resizeParent=1;resizeParentMax=0;resizeLast=0;collapsible=1;marginBottom=0;align=center;fontSize=14;" vertex="1" parent="1">
          <mxGeometry x="110" y="-110" width="160" height="86" as="geometry" />
        </mxCell>
        <mxCell id="sbV9HQ1WPudQin8OO-u3-17" value="title_id int" style="text;strokeColor=none;fillColor=none;spacingLeft=4;spacingRight=4;overflow=hidden;rotatable=0;points=[[0,0.5],[1,0.5]];portConstraint=eastwest;fontSize=12;whiteSpace=wrap;html=1;" vertex="1" parent="sbV9HQ1WPudQin8OO-u3-16">
          <mxGeometry y="26" width="160" height="30" as="geometry" />
        </mxCell>
        <mxCell id="sbV9HQ1WPudQin8OO-u3-18" value="title varchar" style="text;strokeColor=none;fillColor=none;spacingLeft=4;spacingRight=4;overflow=hidden;rotatable=0;points=[[0,0.5],[1,0.5]];portConstraint=eastwest;fontSize=12;whiteSpace=wrap;html=1;" vertex="1" parent="sbV9HQ1WPudQin8OO-u3-16">
          <mxGeometry y="56" width="160" height="30" as="geometry" />
        </mxCell>
        <mxCell id="sbV9HQ1WPudQin8OO-u3-20" value="dim_gender" style="swimlane;fontStyle=0;childLayout=stackLayout;horizontal=1;startSize=26;horizontalStack=0;resizeParent=1;resizeParentMax=0;resizeLast=0;collapsible=1;marginBottom=0;align=center;fontSize=14;" vertex="1" parent="1">
          <mxGeometry x="110" width="160" height="86" as="geometry" />
        </mxCell>
        <mxCell id="sbV9HQ1WPudQin8OO-u3-21" value="gender_id&amp;nbsp;int" style="text;strokeColor=none;fillColor=none;spacingLeft=4;spacingRight=4;overflow=hidden;rotatable=0;points=[[0,0.5],[1,0.5]];portConstraint=eastwest;fontSize=12;whiteSpace=wrap;html=1;" vertex="1" parent="sbV9HQ1WPudQin8OO-u3-20">
          <mxGeometry y="26" width="160" height="30" as="geometry" />
        </mxCell>
        <mxCell id="sbV9HQ1WPudQin8OO-u3-22" value="gender&amp;nbsp;varchar" style="text;strokeColor=none;fillColor=none;spacingLeft=4;spacingRight=4;overflow=hidden;rotatable=0;points=[[0,0.5],[1,0.5]];portConstraint=eastwest;fontSize=12;whiteSpace=wrap;html=1;" vertex="1" parent="sbV9HQ1WPudQin8OO-u3-20">
          <mxGeometry y="56" width="160" height="30" as="geometry" />
        </mxCell>
        <mxCell id="sbV9HQ1WPudQin8OO-u3-23" value="dim_language" style="swimlane;fontStyle=0;childLayout=stackLayout;horizontal=1;startSize=26;horizontalStack=0;resizeParent=1;resizeParentMax=0;resizeLast=0;collapsible=1;marginBottom=0;align=center;fontSize=14;" vertex="1" parent="1">
          <mxGeometry x="70" y="110" width="200" height="86" as="geometry" />
        </mxCell>
        <mxCell id="sbV9HQ1WPudQin8OO-u3-24" value="language_id&amp;nbsp;int" style="text;strokeColor=none;fillColor=none;spacingLeft=4;spacingRight=4;overflow=hidden;rotatable=0;points=[[0,0.5],[1,0.5]];portConstraint=eastwest;fontSize=12;whiteSpace=wrap;html=1;" vertex="1" parent="sbV9HQ1WPudQin8OO-u3-23">
          <mxGeometry y="26" width="200" height="30" as="geometry" />
        </mxCell>
        <mxCell id="sbV9HQ1WPudQin8OO-u3-25" value="correspondence_language&amp;nbsp;varchar" style="text;strokeColor=none;fillColor=none;spacingLeft=4;spacingRight=4;overflow=hidden;rotatable=0;points=[[0,0.5],[1,0.5]];portConstraint=eastwest;fontSize=12;whiteSpace=wrap;html=1;" vertex="1" parent="sbV9HQ1WPudQin8OO-u3-23">
          <mxGeometry y="56" width="200" height="30" as="geometry" />
        </mxCell>
        <mxCell id="sbV9HQ1WPudQin8OO-u3-26" value="dim_clients" style="swimlane;fontStyle=0;childLayout=stackLayout;horizontal=1;startSize=26;horizontalStack=0;resizeParent=1;resizeParentMax=0;resizeLast=0;collapsible=1;marginBottom=0;align=center;fontSize=14;" vertex="1" parent="1">
          <mxGeometry x="620" y="74" width="200" height="146" as="geometry" />
        </mxCell>
        <mxCell id="sbV9HQ1WPudQin8OO-u3-27" value="client_id&amp;nbsp;int" style="text;strokeColor=none;fillColor=none;spacingLeft=4;spacingRight=4;overflow=hidden;rotatable=0;points=[[0,0.5],[1,0.5]];portConstraint=eastwest;fontSize=12;whiteSpace=wrap;html=1;" vertex="1" parent="sbV9HQ1WPudQin8OO-u3-26">
          <mxGeometry y="26" width="200" height="30" as="geometry" />
        </mxCell>
        <mxCell id="sbV9HQ1WPudQin8OO-u3-29" value="first_name varchar" style="text;strokeColor=none;fillColor=none;spacingLeft=4;spacingRight=4;overflow=hidden;rotatable=0;points=[[0,0.5],[1,0.5]];portConstraint=eastwest;fontSize=12;whiteSpace=wrap;html=1;" vertex="1" parent="sbV9HQ1WPudQin8OO-u3-26">
          <mxGeometry y="56" width="200" height="30" as="geometry" />
        </mxCell>
        <mxCell id="sbV9HQ1WPudQin8OO-u3-30" value="last_name varchar" style="text;strokeColor=none;fillColor=none;spacingLeft=4;spacingRight=4;overflow=hidden;rotatable=0;points=[[0,0.5],[1,0.5]];portConstraint=eastwest;fontSize=12;whiteSpace=wrap;html=1;" vertex="1" parent="sbV9HQ1WPudQin8OO-u3-26">
          <mxGeometry y="86" width="200" height="30" as="geometry" />
        </mxCell>
        <mxCell id="sbV9HQ1WPudQin8OO-u3-28" value="birth_date&amp;nbsp;date" style="text;strokeColor=none;fillColor=none;spacingLeft=4;spacingRight=4;overflow=hidden;rotatable=0;points=[[0,0.5],[1,0.5]];portConstraint=eastwest;fontSize=12;whiteSpace=wrap;html=1;" vertex="1" parent="sbV9HQ1WPudQin8OO-u3-26">
          <mxGeometry y="116" width="200" height="30" as="geometry" />
        </mxCell>
        <mxCell id="sbV9HQ1WPudQin8OO-u3-36" value="dim_address" style="swimlane;fontStyle=0;childLayout=stackLayout;horizontal=1;startSize=26;horizontalStack=0;resizeParent=1;resizeParentMax=0;resizeLast=0;collapsible=1;marginBottom=0;align=center;fontSize=14;" vertex="1" parent="1">
          <mxGeometry x="620" y="366" width="200" height="146" as="geometry" />
        </mxCell>
        <mxCell id="sbV9HQ1WPudQin8OO-u3-37" value="address_id&amp;nbsp;int" style="text;strokeColor=none;fillColor=none;spacingLeft=4;spacingRight=4;overflow=hidden;rotatable=0;points=[[0,0.5],[1,0.5]];portConstraint=eastwest;fontSize=12;whiteSpace=wrap;html=1;" vertex="1" parent="sbV9HQ1WPudQin8OO-u3-36">
          <mxGeometry y="26" width="200" height="30" as="geometry" />
        </mxCell>
        <mxCell id="sbV9HQ1WPudQin8OO-u3-38" value="postal_code&amp;nbsp;varchar" style="text;strokeColor=none;fillColor=none;spacingLeft=4;spacingRight=4;overflow=hidden;rotatable=0;points=[[0,0.5],[1,0.5]];portConstraint=eastwest;fontSize=12;whiteSpace=wrap;html=1;" vertex="1" parent="sbV9HQ1WPudQin8OO-u3-36">
          <mxGeometry y="56" width="200" height="30" as="geometry" />
        </mxCell>
        <mxCell id="sbV9HQ1WPudQin8OO-u3-39" value="street&amp;nbsp;varchar" style="text;strokeColor=none;fillColor=none;spacingLeft=4;spacingRight=4;overflow=hidden;rotatable=0;points=[[0,0.5],[1,0.5]];portConstraint=eastwest;fontSize=12;whiteSpace=wrap;html=1;" vertex="1" parent="sbV9HQ1WPudQin8OO-u3-36">
          <mxGeometry y="86" width="200" height="30" as="geometry" />
        </mxCell>
        <mxCell id="sbV9HQ1WPudQin8OO-u3-40" value="building_number&amp;nbsp;date" style="text;strokeColor=none;fillColor=none;spacingLeft=4;spacingRight=4;overflow=hidden;rotatable=0;points=[[0,0.5],[1,0.5]];portConstraint=eastwest;fontSize=12;whiteSpace=wrap;html=1;" vertex="1" parent="sbV9HQ1WPudQin8OO-u3-36">
          <mxGeometry y="116" width="200" height="30" as="geometry" />
        </mxCell>
        <mxCell id="sbV9HQ1WPudQin8OO-u3-51" style="edgeStyle=orthogonalEdgeStyle;rounded=0;orthogonalLoop=1;jettySize=auto;html=1;entryX=0;entryY=0.5;entryDx=0;entryDy=0;exitX=1;exitY=0.5;exitDx=0;exitDy=0;endArrow=ERmany;endFill=0;startArrow=ERone;startFill=0;" edge="1" parent="1" source="sbV9HQ1WPudQin8OO-u3-43" target="sbV9HQ1WPudQin8OO-u3-4">
          <mxGeometry relative="1" as="geometry" />
        </mxCell>
        <mxCell id="sbV9HQ1WPudQin8OO-u3-42" value="dim_region" style="swimlane;fontStyle=0;childLayout=stackLayout;horizontal=1;startSize=26;horizontalStack=0;resizeParent=1;resizeParentMax=0;resizeLast=0;collapsible=1;marginBottom=0;align=center;fontSize=14;" vertex="1" parent="1">
          <mxGeometry x="110" y="220" width="160" height="86" as="geometry" />
        </mxCell>
        <mxCell id="sbV9HQ1WPudQin8OO-u3-43" value="region_id&amp;nbsp;int" style="text;strokeColor=none;fillColor=none;spacingLeft=4;spacingRight=4;overflow=hidden;rotatable=0;points=[[0,0.5],[1,0.5]];portConstraint=eastwest;fontSize=12;whiteSpace=wrap;html=1;" vertex="1" parent="sbV9HQ1WPudQin8OO-u3-42">
          <mxGeometry y="26" width="160" height="30" as="geometry" />
        </mxCell>
        <mxCell id="sbV9HQ1WPudQin8OO-u3-44" value="region&amp;nbsp;varchar" style="text;strokeColor=none;fillColor=none;spacingLeft=4;spacingRight=4;overflow=hidden;rotatable=0;points=[[0,0.5],[1,0.5]];portConstraint=eastwest;fontSize=12;whiteSpace=wrap;html=1;" vertex="1" parent="sbV9HQ1WPudQin8OO-u3-42">
          <mxGeometry y="56" width="160" height="30" as="geometry" />
        </mxCell>
        <mxCell id="sbV9HQ1WPudQin8OO-u3-45" value="dim_city" style="swimlane;fontStyle=0;childLayout=stackLayout;horizontal=1;startSize=26;horizontalStack=0;resizeParent=1;resizeParentMax=0;resizeLast=0;collapsible=1;marginBottom=0;align=center;fontSize=14;" vertex="1" parent="1">
          <mxGeometry x="110" y="320" width="160" height="86" as="geometry" />
        </mxCell>
        <mxCell id="sbV9HQ1WPudQin8OO-u3-46" value="city_id&amp;nbsp;int" style="text;strokeColor=none;fillColor=none;spacingLeft=4;spacingRight=4;overflow=hidden;rotatable=0;points=[[0,0.5],[1,0.5]];portConstraint=eastwest;fontSize=12;whiteSpace=wrap;html=1;" vertex="1" parent="sbV9HQ1WPudQin8OO-u3-45">
          <mxGeometry y="26" width="160" height="30" as="geometry" />
        </mxCell>
        <mxCell id="sbV9HQ1WPudQin8OO-u3-47" value="city&amp;nbsp;varchar" style="text;strokeColor=none;fillColor=none;spacingLeft=4;spacingRight=4;overflow=hidden;rotatable=0;points=[[0,0.5],[1,0.5]];portConstraint=eastwest;fontSize=12;whiteSpace=wrap;html=1;" vertex="1" parent="sbV9HQ1WPudQin8OO-u3-45">
          <mxGeometry y="56" width="160" height="30" as="geometry" />
        </mxCell>
        <mxCell id="sbV9HQ1WPudQin8OO-u3-48" value="dim_country" style="swimlane;fontStyle=0;childLayout=stackLayout;horizontal=1;startSize=26;horizontalStack=0;resizeParent=1;resizeParentMax=0;resizeLast=0;collapsible=1;marginBottom=0;align=center;fontSize=14;" vertex="1" parent="1">
          <mxGeometry x="620" y="250" width="160" height="86" as="geometry" />
        </mxCell>
        <mxCell id="sbV9HQ1WPudQin8OO-u3-49" value="country_id&amp;nbsp;int" style="text;strokeColor=none;fillColor=none;spacingLeft=4;spacingRight=4;overflow=hidden;rotatable=0;points=[[0,0.5],[1,0.5]];portConstraint=eastwest;fontSize=12;whiteSpace=wrap;html=1;" vertex="1" parent="sbV9HQ1WPudQin8OO-u3-48">
          <mxGeometry y="26" width="160" height="30" as="geometry" />
        </mxCell>
        <mxCell id="sbV9HQ1WPudQin8OO-u3-50" value="country&amp;nbsp;varchar" style="text;strokeColor=none;fillColor=none;spacingLeft=4;spacingRight=4;overflow=hidden;rotatable=0;points=[[0,0.5],[1,0.5]];portConstraint=eastwest;fontSize=12;whiteSpace=wrap;html=1;" vertex="1" parent="sbV9HQ1WPudQin8OO-u3-48">
          <mxGeometry y="56" width="160" height="30" as="geometry" />
        </mxCell>
        <mxCell id="sbV9HQ1WPudQin8OO-u3-52" style="edgeStyle=orthogonalEdgeStyle;rounded=0;orthogonalLoop=1;jettySize=auto;html=1;endArrow=ERmany;endFill=0;startArrow=ERone;startFill=0;" edge="1" parent="1" source="sbV9HQ1WPudQin8OO-u3-49" target="sbV9HQ1WPudQin8OO-u3-3">
          <mxGeometry relative="1" as="geometry">
            <mxPoint x="280" y="231" as="sourcePoint" />
            <mxPoint x="360" y="331" as="targetPoint" />
          </mxGeometry>
        </mxCell>
        <mxCell id="sbV9HQ1WPudQin8OO-u3-53" style="edgeStyle=orthogonalEdgeStyle;rounded=0;orthogonalLoop=1;jettySize=auto;html=1;endArrow=ERmany;endFill=0;startArrow=ERone;startFill=0;exitX=0;exitY=0.5;exitDx=0;exitDy=0;" edge="1" parent="1" source="sbV9HQ1WPudQin8OO-u3-37" target="sbV9HQ1WPudQin8OO-u3-5">
          <mxGeometry relative="1" as="geometry">
            <mxPoint x="630" y="301" as="sourcePoint" />
            <mxPoint x="520" y="301" as="targetPoint" />
          </mxGeometry>
        </mxCell>
        <mxCell id="sbV9HQ1WPudQin8OO-u3-57" style="edgeStyle=orthogonalEdgeStyle;rounded=0;orthogonalLoop=1;jettySize=auto;html=1;entryX=0;entryY=0.5;entryDx=0;entryDy=0;endArrow=ERmany;endFill=0;startArrow=ERone;startFill=0;exitX=1;exitY=0.5;exitDx=0;exitDy=0;" edge="1" parent="1" source="sbV9HQ1WPudQin8OO-u3-46" target="sbV9HQ1WPudQin8OO-u3-56">
          <mxGeometry relative="1" as="geometry">
            <mxPoint x="280" y="390" as="sourcePoint" />
            <mxPoint x="360" y="331" as="targetPoint" />
          </mxGeometry>
        </mxCell>
        <mxCell id="sbV9HQ1WPudQin8OO-u3-59" style="edgeStyle=orthogonalEdgeStyle;rounded=0;orthogonalLoop=1;jettySize=auto;html=1;endArrow=ERmany;endFill=0;startArrow=ERone;startFill=0;exitX=0;exitY=0.5;exitDx=0;exitDy=0;" edge="1" parent="1" source="sbV9HQ1WPudQin8OO-u3-27" target="sbV9HQ1WPudQin8OO-u3-2">
          <mxGeometry relative="1" as="geometry">
            <mxPoint x="630" y="301" as="sourcePoint" />
            <mxPoint x="520" y="301" as="targetPoint" />
            <Array as="points">
              <mxPoint x="560" y="115" />
              <mxPoint x="560" y="261" />
            </Array>
          </mxGeometry>
        </mxCell>
        <mxCell id="sbV9HQ1WPudQin8OO-u3-61" style="edgeStyle=orthogonalEdgeStyle;rounded=0;orthogonalLoop=1;jettySize=auto;html=1;entryX=1;entryY=0.5;entryDx=0;entryDy=0;exitX=1;exitY=0.5;exitDx=0;exitDy=0;endArrow=ERmany;endFill=0;startArrow=ERone;startFill=0;" edge="1" parent="1" source="sbV9HQ1WPudQin8OO-u3-27" target="sbV9HQ1WPudQin8OO-u3-7">
          <mxGeometry relative="1" as="geometry">
            <Array as="points">
              <mxPoint x="850" y="115" />
              <mxPoint x="850" y="-10" />
              <mxPoint x="560" y="-10" />
              <mxPoint x="560" y="81" />
            </Array>
          </mxGeometry>
        </mxCell>
        <mxCell id="sbV9HQ1WPudQin8OO-u3-62" style="edgeStyle=orthogonalEdgeStyle;rounded=0;orthogonalLoop=1;jettySize=auto;html=1;exitX=1;exitY=0.5;exitDx=0;exitDy=0;endArrow=ERmany;endFill=0;startArrow=ERone;startFill=0;" edge="1" parent="1" source="sbV9HQ1WPudQin8OO-u3-24" target="sbV9HQ1WPudQin8OO-u3-10">
          <mxGeometry relative="1" as="geometry">
            <mxPoint x="280" y="271" as="sourcePoint" />
            <mxPoint x="360" y="331" as="targetPoint" />
          </mxGeometry>
        </mxCell>
        <mxCell id="sbV9HQ1WPudQin8OO-u3-63" style="edgeStyle=orthogonalEdgeStyle;rounded=0;orthogonalLoop=1;jettySize=auto;html=1;exitX=1;exitY=0.5;exitDx=0;exitDy=0;endArrow=ERmany;endFill=0;startArrow=ERone;startFill=0;entryX=0;entryY=0.5;entryDx=0;entryDy=0;" edge="1" parent="1" source="sbV9HQ1WPudQin8OO-u3-21" target="sbV9HQ1WPudQin8OO-u3-9">
          <mxGeometry relative="1" as="geometry">
            <mxPoint x="280" y="161" as="sourcePoint" />
            <mxPoint x="370" y="181" as="targetPoint" />
          </mxGeometry>
        </mxCell>
        <mxCell id="sbV9HQ1WPudQin8OO-u3-64" style="edgeStyle=orthogonalEdgeStyle;rounded=0;orthogonalLoop=1;jettySize=auto;html=1;exitX=1;exitY=0.5;exitDx=0;exitDy=0;endArrow=ERmany;endFill=0;startArrow=ERone;startFill=0;entryX=0;entryY=0.5;entryDx=0;entryDy=0;" edge="1" parent="1" source="sbV9HQ1WPudQin8OO-u3-17" target="sbV9HQ1WPudQin8OO-u3-8">
          <mxGeometry relative="1" as="geometry">
            <mxPoint x="280" y="51" as="sourcePoint" />
            <mxPoint x="370" y="151" as="targetPoint" />
            <Array as="points">
              <mxPoint x="340" y="-69" />
              <mxPoint x="340" y="111" />
            </Array>
          </mxGeometry>
        </mxCell>
      </root>
    </mxGraphModel>
  </diagram>
</mxfile>
